HIERARCHY
ROOT hip
{
	OFFSET 0.000000 0.000000 0.000000 
	CHANNELS 6 Xposition Yposition Zposition Zrotation Yrotation Xrotation
	JOINT abdomen
	{
		OFFSET 0.000000 20.688101 -0.731520 
		CHANNELS 3 Zrotation Xrotation Yrotation
		JOINT chest
		{
			OFFSET 0.000000 11.704300 -0.487680 
			CHANNELS 3 Zrotation Xrotation Yrotation
			JOINT neck
			{
				OFFSET 0.000000 22.189400 -2.194560 
				CHANNELS 3 Zrotation Xrotation Yrotation
				JOINT head
				{
					OFFSET -0.243840 7.071330 1.219200 
					CHANNELS 3 Zrotation Xrotation Yrotation
					End Site
					{
						OFFSET 1.000000 0.000000 0.000000 
					}
				}
			}
			JOINT rCollar
			{
				OFFSET -2.682240 19.263399 -4.876800 
				CHANNELS 3 Zrotation Xrotation Yrotation
				JOINT rShldr
				{
					OFFSET -8.778240 -1.950730 1.463040 
					CHANNELS 3 Zrotation Xrotation Yrotation
					JOINT rForeArm
					{
						OFFSET -28.174200 -1.711500 0.487680 
						CHANNELS 3 Zrotation Xrotation Yrotation
						JOINT rHand
						{
							OFFSET -22.587900 0.773209 7.071360 
							CHANNELS 3 Zrotation Xrotation Yrotation
							End Site
							{
								OFFSET -1.782710 -1.182140 1.430490 
							}
						}
					}
				}
			}
			JOINT lCollar
			{
				OFFSET 2.682240 19.263399 -4.876800 
				CHANNELS 3 Zrotation Xrotation Yrotation
				JOINT lShldr
				{
					OFFSET 8.778240 -1.950730 1.463040 
					CHANNELS 3 Zrotation Xrotation Yrotation
					JOINT lForeArm
					{
						OFFSET 28.174200 -1.711500 0.487680 
						CHANNELS 3 Zrotation Xrotation Yrotation
						JOINT lHand
						{
							OFFSET 22.587900 0.773209 7.071360 
							CHANNELS 3 Zrotation Xrotation Yrotation
							End Site
							{
								OFFSET 1.782710 -1.182140 1.430490 
							}
						}
					}
				}
			}
		}
	}
	JOINT rButtock
	{
		OFFSET -8.778240 4.350840 1.219200 
		CHANNELS 3 Zrotation Xrotation Yrotation
		JOINT rThigh
		{
			OFFSET 0.000000 -1.706870 -2.194560 
			CHANNELS 3 Zrotation Xrotation Yrotation
			JOINT rShin
			{
				OFFSET 0.000000 -36.819901 0.731520 
				CHANNELS 3 Zrotation Xrotation Yrotation
				JOINT rFoot
				{
					OFFSET 0.731520 -45.110401 -5.120640 
					CHANNELS 3 Zrotation Xrotation Yrotation
					End Site
					{
						OFFSET -1.122100 -3.699640 12.103000 
					}
				}
			}
		}
	}
	JOINT lButtock
	{
		OFFSET 8.778240 4.350840 1.219200 
		CHANNELS 3 Zrotation Xrotation Yrotation
		JOINT lThigh
		{
			OFFSET 0.000000 -1.706870 -2.194560 
			CHANNELS 3 Zrotation Xrotation Yrotation
			JOINT lShin
			{
				OFFSET 0.000000 -36.819901 0.731520 
				CHANNELS 3 Zrotation Xrotation Yrotation
				JOINT lFoot
				{
					OFFSET -0.731520 -45.110401 -5.120640 
					CHANNELS 3 Zrotation Xrotation Yrotation
					End Site
					{
						OFFSET 1.122100 -3.699640 12.103000 
					}
				}
			}
		}
	}
}
MOTION
Frames: 16
Frame Time: 0.008333
-9.347940 85.052101 3.643300 -6.483800 78.835999 2.869900 2.731850 -2.810970 -3.001640 0.939177 -3.710960 -0.795140 8.450950 -6.986730 6.860740 -9.270280 18.163200 12.863200 -0.000000 0.000000 -0.000000 35.223801 61.981602 41.855900 -28.433300 -35.760300 76.608002 -1.872230 -35.737000 -5.803840 -0.000000 0.000000 -0.000000 -52.680099 27.342100 -38.850300 23.730301 -18.597300 -48.788898 5.646420 -53.861801 11.093100 -0.000000 0.000000 -0.000000 3.980420 -13.999100 36.330101 -0.031944 9.435440 -0.037439 -0.224827 3.143380 -34.077301 0.000000 0.000000 0.000000 1.414420 -13.108300 -22.690201 0.036683 14.605600 -0.455488 10.095900 -9.406420 33.935799 
-9.435610 85.079399 3.693600 -6.639200 78.261497 2.885100 2.790760 -2.511300 -3.223220 0.895202 -3.745060 -0.859774 8.641820 -6.876860 7.159480 -9.239540 18.061399 13.370400 -0.000000 0.000000 0.000000 33.658798 62.446800 43.596199 -28.433399 -35.695702 76.500298 -1.907980 -36.019600 -5.864720 -0.000000 0.000000 0.000000 -52.085300 25.524500 -40.396999 23.543699 -18.263100 -48.223301 6.030010 -54.975899 11.564900 -0.000000 0.000000 -0.000000 4.065650 -13.994000 36.892101 -0.030703 8.927120 -0.050878 0.120192 3.526470 -33.987400 0.000000 0.000000 0.000000 1.779440 -13.359200 -21.355000 0.040080 14.650600 -0.443284 9.728810 -9.213710 33.173500 
-9.522640 85.092102 3.739320 -6.716500 77.667702 2.976200 2.798350 -2.232310 -3.388360 0.854033 -3.781120 -0.908264 8.812090 -6.764800 7.420950 -9.226580 17.951401 13.814200 0.000000 -0.000000 0.000000 32.248299 62.865700 45.194599 -28.433300 -35.645100 76.416298 -1.933200 -36.215500 -5.907260 0.000000 -0.000000 0.000000 -51.638199 23.803499 -41.825001 23.312799 -17.865601 -47.503601 6.309030 -55.729000 11.902600 -0.000000 0.000000 -0.000000 4.145740 -14.060000 37.494801 -0.029997 8.547560 -0.061611 0.392297 3.834080 -33.937500 0.000000 0.000000 0.000000 2.121430 -13.617200 -19.868500 0.043238 14.708100 -0.431325 9.362440 -9.073030 32.301701 
-9.614500 85.102402 3.783730 -6.733600 77.018600 3.141900 2.725120 -1.976140 -3.478710 0.808203 -3.819710 -0.935655 8.946130 -6.645680 7.634950 -9.196610 17.824200 14.174700 -0.000000 -0.000000 0.000000 31.090900 63.245701 46.566002 -28.433201 -35.619900 76.374802 -1.945350 -36.308800 -5.927650 -0.000000 -0.000000 0.000000 -51.371300 22.132200 -43.157902 23.007900 -17.358101 -46.565102 6.420570 -56.014500 12.036000 -0.000000 0.000000 -0.000000 4.221300 -14.226600 38.153000 -0.029897 8.363840 -0.068409 0.552060 4.024080 -33.945900 0.000000 0.000000 0.000000 2.430920 -13.874900 -18.149099 0.045860 14.769200 -0.419192 8.983980 -9.009250 31.250200 
-9.700130 85.099998 3.791010 -6.244100 76.321297 3.810600 2.600600 -1.732020 -3.510770 0.754667 -3.860030 -0.946715 9.052970 -6.525310 7.817430 -9.135950 17.684000 14.476900 -0.000000 0.000000 -0.000000 30.097401 63.597698 47.805099 -28.433100 -35.605701 76.351501 -1.949250 -36.338699 -5.934180 -0.000000 0.000000 -0.000000 -51.261200 20.486500 -44.406799 22.614599 -16.719700 -45.428001 6.396160 -55.950699 12.006600 -0.000000 0.000000 -0.000000 4.301600 -14.455600 38.863602 -0.030080 8.305770 -0.072734 0.643604 4.142130 -33.991299 0.000000 0.000000 0.000000 2.733240 -14.132100 -16.224899 0.048251 14.841100 -0.406732 8.586610 -8.991510 30.048500 
-9.791550 85.091400 3.786830 -5.796700 75.640198 4.431500 2.465470 -1.503050 -3.513570 0.712620 -3.901360 -0.949010 9.161800 -6.410430 7.979530 -9.133650 17.549400 14.747500 -0.000000 0.000000 -0.000000 29.161400 63.922100 48.989601 -28.433100 -35.588001 76.321899 -1.945650 -36.311298 -5.928170 -0.000000 0.000000 -0.000000 -51.195599 18.988701 -45.535900 22.176901 -16.031601 -44.237301 6.297330 -55.693401 11.887900 -0.000000 0.000000 -0.000000 4.388940 -14.699900 39.598999 -0.030235 8.275010 -0.076313 0.724920 4.247100 -34.045898 0.000000 0.000000 0.000000 3.038590 -14.393700 -14.255700 0.050812 14.939200 -0.394998 8.198570 -8.986360 28.830799 
-9.869920 85.081200 3.818940 -5.741200 74.972900 4.657400 2.360950 -1.292340 -3.516120 0.701234 -3.943020 -0.950107 9.301770 -6.307750 8.132360 -9.278920 17.438801 15.012900 -0.000000 0.000000 -0.000000 28.172001 64.215202 50.200699 -28.433100 -35.552200 76.261497 -1.935430 -36.232800 -5.911020 -0.000000 0.000000 -0.000000 -51.051201 17.750000 -46.501400 21.754000 -15.392400 -43.129902 6.186660 -55.398602 11.754300 -0.000000 0.000000 -0.000000 4.482730 -14.914500 40.330502 -0.030091 8.173220 -0.080866 0.853917 4.397920 -34.082100 0.000000 0.000000 0.000000 3.356800 -14.670000 -12.401500 0.053945 15.078500 -0.385039 7.849680 -8.961720 27.731501 
-9.941890 85.073196 3.854820 -5.698600 74.331299 4.857800 2.287470 -1.110610 -3.518460 0.740104 -3.987870 -0.949306 9.492820 -6.222580 8.269300 -9.651440 17.367201 15.266800 -0.000000 0.000000 0.000000 27.115999 64.474602 51.438301 -28.432899 -35.491402 76.159798 -1.910070 -36.035702 -5.868220 -0.000000 0.000000 0.000000 -50.736000 16.815901 -47.276901 21.355200 -14.819000 -42.082100 6.015520 -54.926800 11.546100 -0.000000 0.000000 -0.000000 4.594640 -15.111000 41.058399 -0.029749 7.998690 -0.087104 1.039980 4.607280 -34.100101 0.000000 0.000000 0.000000 3.700640 -14.992900 -10.655000 0.057966 15.281800 -0.377135 7.533940 -8.903630 26.745899 
-10.014100 85.072800 3.904890 -5.832400 73.669098 4.868700 2.226330 -0.952869 -3.507670 0.814198 -4.035260 -0.943475 9.715660 -6.150170 8.387630 -10.185800 17.321400 15.499800 -0.000000 0.000000 0.000000 26.054399 64.704002 52.658901 -28.432301 -35.414299 76.031502 -1.872690 -35.739700 -5.804490 -0.000000 0.000000 0.000000 -50.305199 16.102800 -47.883999 20.954700 -14.266600 -41.037899 5.781980 -54.254501 11.259400 -0.000000 0.000000 -0.000000 4.721210 -15.304600 41.795502 -0.029322 7.795710 -0.094022 1.254190 4.844810 -34.112202 0.000000 0.000000 0.000000 4.066600 -15.349100 -8.946370 0.062577 15.535000 -0.370726 7.240250 -8.832340 25.816099 
-10.096200 85.076599 3.952080 -5.931300 72.932999 4.976900 2.190460 -0.798794 -3.493300 0.890714 -4.079250 -0.936540 9.940450 -6.082070 8.504340 -10.753000 17.277100 15.733600 0.000000 0.000000 0.000000 24.985100 64.906197 53.881302 -28.431299 -35.328999 75.890297 -1.840750 -35.481701 -5.749460 0.000000 0.000000 0.000000 -49.855999 15.525800 -48.347698 20.576000 -13.759400 -40.078899 5.601700 -53.712399 11.035900 -0.000000 0.000000 -0.000000 4.835280 -15.459800 42.529400 -0.028588 7.534900 -0.100763 1.496780 5.105070 -34.110199 0.000000 0.000000 0.000000 4.433630 -15.685600 -7.344260 0.067270 15.797200 -0.365608 6.990550 -8.769230 24.996500 
-10.188000 85.087898 3.957720 -5.650800 72.193802 5.582600 2.192880 -0.628059 -3.484930 0.936837 -4.113880 -0.932425 10.137200 -6.009890 8.636430 -11.223900 17.209700 15.989900 0.000000 -0.000000 0.000000 23.904499 65.083099 55.125099 -28.430201 -35.243999 75.749298 -1.830560 -35.398800 -5.731830 0.000000 -0.000000 0.000000 -49.491501 15.004700 -48.695301 20.247999 -13.326900 -39.285400 5.574480 -53.632702 11.002500 -0.000000 0.000000 -0.000000 4.907680 -15.542700 43.247200 -0.027326 7.186920 -0.106471 1.767800 5.382710 -34.085800 0.000000 0.000000 0.000000 4.773100 -15.950300 -5.919300 0.071552 16.027700 -0.361578 6.805180 -8.736810 24.341101 
-10.206900 85.098900 3.990980 -5.658900 71.378098 5.691300 2.254990 -0.433555 -3.490080 0.942805 -4.139860 -0.933617 10.300700 -5.921680 8.802500 -11.577200 17.100000 16.303400 0.000000 -0.000000 0.000000 22.734800 65.241898 56.473000 -28.428801 -35.161999 75.613503 -1.858690 -35.628899 -5.780660 0.000000 -0.000000 0.000000 -49.199001 14.532500 -48.909302 19.985701 -12.988700 -38.663799 5.760450 -54.199402 11.234000 -0.000000 0.000000 -0.000000 4.904790 -15.512100 43.956402 -0.025055 6.662850 -0.110929 2.105180 5.708800 -34.023201 0.000000 0.000000 0.000000 5.071740 -16.124901 -4.707130 0.075480 16.214701 -0.358733 6.702130 -8.744300 23.904600 
-10.228300 85.103996 4.000030 -5.870600 70.758003 5.607700 2.363980 -0.226691 -3.502000 0.926449 -4.159610 -0.937542 10.445800 -5.825190 8.988790 -11.876500 16.965300 16.652500 0.000000 0.000000 0.000000 21.506901 65.376999 57.884998 -28.427200 -35.078400 75.475502 -1.913410 -36.064999 -5.874320 0.000000 0.000000 0.000000 -48.929401 14.141500 -48.982300 19.783100 -12.737300 -38.171398 6.110850 -55.202301 11.663800 -0.000000 0.000000 -0.000000 4.845810 -15.400600 44.658699 -0.022058 6.005370 -0.114597 2.495340 6.076010 -33.931999 0.000000 0.000000 0.000000 5.337000 -16.242701 -3.667140 0.079286 16.380301 -0.357138 6.664160 -8.781230 23.644400 
-10.228000 85.110703 4.015510 -5.924600 70.033203 5.665800 2.481470 -0.014915 -3.508860 0.896340 -4.169700 -0.940537 10.572700 -5.741450 9.163710 -12.120400 16.835800 16.975201 0.000000 0.000000 -0.000000 20.384899 65.475403 59.192101 -28.425200 -34.990299 75.329697 -1.966740 -36.476898 -5.964070 0.000000 0.000000 -0.000000 -48.735001 13.813400 -48.957802 19.639000 -12.563600 -37.814499 6.556610 -56.382301 12.202000 -0.000000 0.000000 -0.000000 4.782040 -15.284800 45.332401 -0.019210 5.382540 -0.117633 2.861650 6.420940 -33.840900 0.000000 0.000000 0.000000 5.568910 -16.329100 -2.756220 0.082740 16.534500 -0.356535 6.658500 -8.840380 23.469200 
-10.229000 85.122002 3.979290 -5.856000 69.464600 5.885300 2.568960 0.194337 -3.498830 0.861052 -4.166730 -0.938937 10.682000 -5.691470 9.295730 -12.308700 16.742001 17.209700 0.000000 0.000000 -0.000000 19.538099 65.530998 60.221500 -28.422899 -34.894600 75.170898 -1.987510 -36.634499 -5.998730 0.000000 0.000000 -0.000000 -48.670200 13.531500 -48.879799 19.550600 -12.456900 -37.599998 7.004650 -57.482300 12.735700 -0.000000 0.000000 -0.000000 4.768240 -15.238600 45.956402 -0.017354 4.962420 -0.120181 3.128530 6.679490 -33.778099 0.000000 0.000000 0.000000 5.769860 -16.409000 -1.930610 0.085608 16.687700 -0.356670 6.652540 -8.914110 23.287600 
-10.213100 85.117996 3.977580 -5.919200 68.883102 5.896900 2.613280 0.405248 -3.457750 0.814766 -4.145060 -0.928911 10.778300 -5.690670 9.373840 -12.427300 16.698200 17.329201 0.000000 0.000000 -0.000000 19.073099 65.535301 60.877300 -28.419901 -34.782299 74.984001 -1.962290 -36.442600 -5.956580 0.000000 0.000000 -0.000000 -48.799801 13.282800 -48.712399 19.536900 -12.439200 -37.570999 7.435600 -58.474201 13.244100 -0.000000 0.000000 -0.000000 4.832950 -15.288000 46.537998 -0.016847 4.828530 -0.122153 3.255870 6.814850 -33.755798 0.000000 0.000000 0.000000 5.929610 -16.475201 -1.209870 0.087665 16.842100 -0.358093 6.650640 -9.016730 23.100201 
